# Made in Blockbench 4.12.4
mtllib Pushki.mtl

o cylinder
v -0.028737976320958227 -0.024999999999999998 0.018750000000000006
v -0.02936598224071867 -0.022656249999999985 0.0625
v -0.02438702367904178 -0.022487976320958225 0.018750000000000003
v -0.026102767759281335 -0.020772232240718655 0.0625
v -0.021875000000000002 -0.018137023679041773 0.018750000000000003
v -0.024218750000000004 -0.017509017759281317 0.0625
v -0.021875000000000002 -0.013112976320958224 0.018750000000000003
v -0.024218750000000004 -0.013740982240718654 0.0625
v -0.024387023679041775 -0.008762023679041775 0.018750000000000003
v -0.02610276775928133 -0.010477767759281317 0.0625
v -0.028737976320958224 -0.006250000000000002 0.01875
v -0.029365982240718666 -0.008593749999999987 0.0625
v -0.03376202367904177 -0.006249999999999999 0.01875
v -0.03313401775928133 -0.008593749999999987 0.0625
v -0.038112976320958225 -0.008762023679041773 0.018750000000000003
v -0.03639723224071867 -0.010477767759281317 0.0625
v -0.040624999999999994 -0.013112976320958225 0.018750000000000003
v -0.03828125 -0.013740982240718656 0.0625
v -0.040625 -0.01813702367904177 0.018750000000000003
v -0.03828125 -0.017509017759281313 0.0625
v -0.038112976320958225 -0.02248797632095822 0.018750000000000003
v -0.03639723224071867 -0.020772232240718655 0.0625
v -0.033762023679041776 -0.024999999999999998 0.018750000000000006
v -0.033134017759281334 -0.022656249999999985 0.0625
vt 0.5 0.603515625
vt 0.5029296875 0.603515625
vt 0.501953125 0.625
vt 0.5 0.625
vt 0.3125 0.478515625
vt 0.3154296875 0.478515625
vt 0.314453125 0.5
vt 0.3125 0.5
vt 0.1875 0.478515625
vt 0.1904296875 0.478515625
vt 0.189453125 0.5
vt 0.1875 0.5
vt 0.5 0.666015625
vt 0.5029296875 0.666015625
vt 0.501953125 0.6875
vt 0.5 0.6875
vt 0.4375 0.478515625
vt 0.4404296875 0.478515625
vt 0.439453125 0.5
vt 0.4375 0.5
vt 0.5 0.853515625
vt 0.5029296875 0.853515625
vt 0.501953125 0.875
vt 0.5 0.875
vt 0.375 0.478515625
vt 0.3779296875 0.478515625
vt 0.376953125 0.5
vt 0.375 0.5
vt 0.25 0.478515625
vt 0.2529296875 0.478515625
vt 0.251953125 0.5
vt 0.25 0.5
vt 0.5 0.791015625
vt 0.5029296875 0.791015625
vt 0.501953125 0.8125
vt 0.5 0.8125
vt 0.5 0.728515625
vt 0.5029296875 0.728515625
vt 0.501953125 0.75
vt 0.5 0.75
vt 0.5 0.541015625
vt 0.5029296875 0.541015625
vt 0.501953125 0.5625
vt 0.5 0.5625
vt 0.125 0.478515625
vt 0.1279296875 0.478515625
vt 0.126953125 0.5
vt 0.125 0.5
vn 0.49928406613504406 -0.8647853699554766 0.05349472137161217
vn 0.8647853699554767 -0.4992840661350443 0.053494721371612076
vn 0.9985681322700889 1.1878214272534197e-17 0.05349472137161192
vn 0.8647853699554765 0.4992840661350442 0.053494721371611736
vn 0.4992840661350443 0.8647853699554767 0.05349472137161163
vn 6.895793203955822e-16 0.998568132270089 0.05349472137161161
vn -0.49928406613504406 0.8647853699554767 0.05349472137161163
vn -0.8647853699554767 0.49928406613504395 0.05349472137161174
vn -0.9985681322700889 7.01457534668117e-16 0.05349472137161191
vn -0.8647853699554767 -0.49928406613504406 0.05349472137161204
vn -0.49928406613504417 -0.8647853699554766 0.05349472137161217
vn 0 -0.998568132270089 0.05349472137161222
usemtl m_d1e3a159-32eb-64ea-1691-a01c8c9ce941
f 1/1/1 3/2/1 4/3/1 2/4/1
f 3/5/2 5/6/2 6/7/2 4/8/2
f 5/9/3 7/10/3 8/11/3 6/12/3
f 7/13/4 9/14/4 10/15/4 8/16/4
f 9/17/5 11/18/5 12/19/5 10/20/5
f 11/21/6 13/22/6 14/23/6 12/24/6
f 13/25/7 15/26/7 16/27/7 14/28/7
f 15/29/8 17/30/8 18/31/8 16/32/8
f 17/33/9 19/34/9 20/35/9 18/36/9
f 19/37/10 21/38/10 22/39/10 20/40/10
f 21/41/11 23/42/11 24/43/11 22/44/11
f 23/45/12 1/46/12 2/47/12 24/48/12
o cylinder
v 0.028737976320958227 -0.024999999999999998 0.018750000000000006
v 0.02936598224071867 -0.022656249999999985 0.0625
v 0.02438702367904178 -0.022487976320958225 0.018750000000000003
v 0.026102767759281335 -0.020772232240718655 0.0625
v 0.021875000000000002 -0.018137023679041773 0.018750000000000003
v 0.024218750000000004 -0.017509017759281317 0.0625
v 0.021875000000000002 -0.013112976320958224 0.018750000000000003
v 0.024218750000000004 -0.013740982240718654 0.0625
v 0.024387023679041775 -0.008762023679041775 0.018750000000000003
v 0.02610276775928133 -0.010477767759281317 0.0625
v 0.028737976320958224 -0.006250000000000002 0.01875
v 0.029365982240718666 -0.008593749999999987 0.0625
v 0.03376202367904177 -0.006249999999999999 0.01875
v 0.03313401775928133 -0.008593749999999987 0.0625
v 0.038112976320958225 -0.008762023679041773 0.018750000000000003
v 0.03639723224071867 -0.010477767759281317 0.0625
v 0.040624999999999994 -0.013112976320958225 0.018750000000000003
v 0.03828125 -0.013740982240718656 0.0625
v 0.040625 -0.01813702367904177 0.018750000000000003
v 0.03828125 -0.017509017759281313 0.0625
v 0.038112976320958225 -0.02248797632095822 0.018750000000000003
v 0.03639723224071867 -0.020772232240718655 0.0625
v 0.033762023679041776 -0.024999999999999998 0.018750000000000006
v 0.033134017759281334 -0.022656249999999985 0.0625
vt 0.501953125 0.625
vt 0.5029296875 0.603515625
vt 0.5 0.603515625
vt 0.5 0.625
vt 0.314453125 0.5
vt 0.3154296875 0.478515625
vt 0.3125 0.478515625
vt 0.3125 0.5
vt 0.189453125 0.5
vt 0.1904296875 0.478515625
vt 0.1875 0.478515625
vt 0.1875 0.5
vt 0.501953125 0.6875
vt 0.5029296875 0.666015625
vt 0.5 0.666015625
vt 0.5 0.6875
vt 0.439453125 0.5
vt 0.4404296875 0.478515625
vt 0.4375 0.478515625
vt 0.4375 0.5
vt 0.501953125 0.875
vt 0.5029296875 0.853515625
vt 0.5 0.853515625
vt 0.5 0.875
vt 0.376953125 0.5
vt 0.3779296875 0.478515625
vt 0.375 0.478515625
vt 0.375 0.5
vt 0.251953125 0.5
vt 0.2529296875 0.478515625
vt 0.25 0.478515625
vt 0.25 0.5
vt 0.501953125 0.8125
vt 0.5029296875 0.791015625
vt 0.5 0.791015625
vt 0.5 0.8125
vt 0.501953125 0.75
vt 0.5029296875 0.728515625
vt 0.5 0.728515625
vt 0.5 0.75
vt 0.501953125 0.5625
vt 0.5029296875 0.541015625
vt 0.5 0.541015625
vt 0.5 0.5625
vt 0.126953125 0.5
vt 0.1279296875 0.478515625
vt 0.125 0.478515625
vt 0.125 0.5
vn -0.499284066135044 -0.8647853699554766 0.05349472137161216
vn -0.8647853699554766 -0.4992840661350444 0.05349472137161207
vn -0.9985681322700889 1.1878214272534199e-17 0.053494721371611924
vn -0.8647853699554767 0.4992840661350442 0.05349472137161175
vn -0.4992840661350442 0.8647853699554765 0.053494721371611625
vn -6.772654039599468e-16 0.998568132270089 0.053494721371611605
vn 0.4992840661350441 0.8647853699554767 0.05349472137161163
vn 0.864785369955477 0.49928406613504395 0.05349472137161174
vn 0.9985681322700889 6.891436182324816e-16 0.05349472137161191
vn 0.8647853699554766 -0.499284066135044 0.05349472137161205
vn 0.4992840661350443 -0.8647853699554767 0.05349472137161218
vn 0 -0.998568132270089 0.05349472137161222
usemtl m_d1e3a159-32eb-64ea-1691-a01c8c9ce941
f 28/49/13 27/50/13 25/51/13 26/52/13
f 30/53/14 29/54/14 27/55/14 28/56/14
f 32/57/15 31/58/15 29/59/15 30/60/15
f 34/61/16 33/62/16 31/63/16 32/64/16
f 36/65/17 35/66/17 33/67/17 34/68/17
f 38/69/18 37/70/18 35/71/18 36/72/18
f 40/73/19 39/74/19 37/75/19 38/76/19
f 42/77/20 41/78/20 39/79/20 40/80/20
f 44/81/21 43/82/21 41/83/21 42/84/21
f 46/85/22 45/86/22 43/87/22 44/88/22
f 48/89/23 47/90/23 45/91/23 46/92/23
f 26/93/24 25/94/24 47/95/24 48/96/24