# Made in Blockbench 4.12.4
mtllib obstacle.mtl

o cuboid
v 0.03125 0.006249999999999999 0.02851562500000001
v 0.03125 0.006249999999999999 -0.02851562500000001
v -0.026562500000000017 0.006249999999999999 0.02851562500000001
v -0.026562500000000017 0.006249999999999999 -0.016015625000000012
v 0.00625 0.006249999999999999 -0.02851562500000001
v 0.00625 0.006249999999999999 0.02851562500000001
v -0.009375 0.006249999999999999 -0.016015625000000012
v -0.009375 0.006249999999999999 0.02851562500000001
v -0.026562500000000017 0.006249999999999999 0.021250000000000005
v -0.026562500000000017 0.006249999999999999 0.011250000000000003
v -0.026562500000000017 0.006249999999999999 0.0012500000000000046
v -0.026562500000000017 0.006249999999999999 -0.008749999999999999
v 0.03125 0.006249999999999999 0.018750000000000003
v 0.03125 0.006249999999999999 0.0062500000000000056
v 0.03125 0.006249999999999999 -0.006249999999999995
v 0.03125 0.006249999999999999 -0.018749999999999996
v 0.00625 0.006249999999999999 0.018750000000000003
v 0.00625 0.006249999999999999 0.0062500000000000056
v 0.00625 0.006249999999999999 -0.006249999999999995
v 0.00625 0.006249999999999999 -0.018749999999999996
v -0.009375 0.006249999999999999 0.021250000000000005
v -0.009375 0.006249999999999999 0.011250000000000003
v -0.009375 0.006249999999999999 0.0012500000000000046
v -0.009375 0.006249999999999999 -0.008749999999999999
v 0.03125 0.003515625 -0.006249999999999995
v 0.03125 0.003515625 -0.018749999999999996
v 0.00625 0.003515625 -0.018749999999999996
v 0.00625 0.003515625 -0.006249999999999995
v -0.009375 0.003515625 -0.008749999999999999
v -0.009375 0.003515625 0.0012500000000000046
v 0.03125 0.003515625 0.018750000000000003
v 0.03125 0.003515625 0.0062500000000000056
v 0.00625 0.003515625 0.0062500000000000056
v 0.00625 0.003515625 0.018750000000000003
v -0.009375 0.003515625 0.011250000000000003
v -0.009375 0.003515625 0.021250000000000005
v -0.026562500000000003 0.003515625 -0.008749999999999999
v -0.026562500000000003 0.003515625 0.0012500000000000046
v -0.026562500000000003 0.003515625 0.011250000000000003
v -0.026562500000000003 0.003515625 0.021250000000000005
v 0.03125 -0.006249999999999999 0.02851562500000001
v 0.03125 -0.006249999999999999 -0.02851562500000001
v -0.026562500000000017 -0.006249999999999999 0.02851562500000001
v -0.026562500000000017 -0.006249999999999999 -0.016015625000000012
v 0.00625 -0.006249999999999999 -0.02851562500000001
v 0.00625 -0.006249999999999999 0.02851562500000001
v -0.009375 -0.006249999999999999 -0.016015625000000012
v -0.009375 -0.006249999999999999 0.02851562500000001
v -0.026562500000000017 -0.006249999999999999 0.021250000000000005
v -0.026562500000000017 -0.006249999999999999 0.011250000000000003
v -0.026562500000000017 -0.006249999999999999 0.0012500000000000046
v -0.026562500000000017 -0.006249999999999999 -0.008749999999999999
v 0.03125 -0.006249999999999999 0.018750000000000003
v 0.03125 -0.006249999999999999 0.0062500000000000056
v 0.03125 -0.006249999999999999 -0.006249999999999995
v 0.03125 -0.006249999999999999 -0.018749999999999996
v 0.00625 -0.006249999999999999 0.018750000000000003
v 0.00625 -0.006249999999999999 0.0062500000000000056
v 0.00625 -0.006249999999999999 -0.006249999999999995
v 0.00625 -0.006249999999999999 -0.018749999999999996
v -0.009375 -0.006249999999999999 0.021250000000000005
v -0.009375 -0.006249999999999999 0.011250000000000003
v -0.009375 -0.006249999999999999 0.0012500000000000046
v -0.009375 -0.006249999999999999 -0.008749999999999999
v 0.03125 -0.003515625 -0.006249999999999995
v 0.03125 -0.003515625 -0.018749999999999996
v 0.00625 -0.003515625 -0.018749999999999996
v 0.00625 -0.003515625 -0.006249999999999995
v -0.009375 -0.003515625 -0.008749999999999999
v -0.009375 -0.003515625 0.0012500000000000046
v 0.03125 -0.003515625 0.018750000000000003
v 0.03125 -0.003515625 0.0062500000000000056
v 0.00625 -0.003515625 0.0062500000000000056
v 0.00625 -0.003515625 0.018750000000000003
v -0.009375 -0.003515625 0.011250000000000003
v -0.009375 -0.003515625 0.021250000000000005
v -0.026562500000000003 -0.003515625 -0.008749999999999999
v -0.026562500000000003 -0.003515625 0.0012500000000000046
v -0.026562500000000003 -0.003515625 0.011250000000000003
v -0.026562500000000003 -0.003515625 0.021250000000000005
v -0.03125 0 -0.008749999999999999
v -0.03125 0 -0.016015625000000012
v -0.009375 0 -0.018750000000000003
v 0.00625 0 -0.03125
v 0.03125 0 -0.03125
v 0.03125 0 0.03125
v 0.00625 0 0.03125
v -0.009375 0 0.03125
v -0.03125 0 0.02851562500000001
v -0.03125 0 0.021250000000000005
v -0.03125 0 0.011250000000000003
v -0.03125 0 0.0012500000000000046
v -0.026562500000000003 0 0.03125
v -0.026562500000000003 0 -0.018750000000000003
v -0.026562500000000003 0 0.0012500000000000046
v -0.026562500000000013 0 -0.008749999999999999
v -0.026562500000000013 0 0.011250000000000003
v -0.026562500000000003 0 0.021250000000000005
vt 0.21875 0.5
vt 0.21875 0.49609375
vt 0.22265625 0.49609375
vt 0.22265625 0.5
vt 0.09375 0.96875
vt 0.09375 0.9638671875
vt 0.1064453125 0.9638671875
vt 0.1064453125 0.96875
vt 0.25 0.5625
vt 0.25 0.5595703125
vt 0.2626953125 0.5595703125
vt 0.2626953125 0.5625
vt 0.46875 0.75
vt 0.46875 0.7470703125
vt 0.4814453125 0.7470703125
vt 0.4814453125 0.75
vt 0.4384765625 0.4375
vt 0.4375 0.4345703125
vt 0.447265625 0.4345703125
vt 0.4482421875 0.4375
vt 0.40625 0.5625
vt 0.40625 0.5595703125
vt 0.4140625 0.5595703125
vt 0.4140625 0.5625
vt 0.59375 0.431640625
vt 0.59375 0.427734375
vt 0.6015625 0.427734375
vt 0.6015625 0.431640625
vt 0.5009765625 0.375
vt 0.5 0.3720703125
vt 0.5029296875 0.3720703125
vt 0.5625 0.3720703125
vt 0.5654296875 0.3720703125
vt 0.564453125 0.375
vt 0.5 0.8125
vt 0.5 0.80859375
vt 0.50390625 0.80859375
vt 0.50390625 0.8125
vt 0.5 0.875
vt 0.5 0.87109375
vt 0.5048828125 0.87109375
vt 0.5048828125 0.875
vt 0.1689453125 0.9951171875
vt 0.1689453125 1
vt 0.15625 1
vt 0.15625 0.9951171875
vt 0.1689453125 0.931640625
vt 0.1689453125 0.9375
vt 0.15625 0.9375
vt 0.15625 0.931640625
vt 0.0126953125 0.775390625
vt 0.0126953125 0.78125
vt 0 0.78125
vt 0 0.775390625
vt 0.0751953125 0.775390625
vt 0.0751953125 0.78125
vt 0.0625 0.78125
vt 0.0625 0.775390625
vt 0.1640625 0.8076171875
vt 0.1640625 0.8115234375
vt 0.15625 0.8115234375
vt 0.15625 0.8076171875
vt 0.1015625 0.369140625
vt 0.1015625 0.375
vt 0.09375 0.3720703125
vt 0.09375 0.3671875
vt 0.6328125 0.9287109375
vt 0.6328125 0.9345703125
vt 0.625 0.9345703125
vt 0.625 0.9287109375
vt 0.5390625 0.431640625
vt 0.5390625 0.4375
vt 0.53125 0.4326171875
vt 0.53125 0.427734375
vt 0.1875 0.7802734375
vt 0.2001953125 0.7802734375
vt 0.2001953125 0.78125
vt 0.1875 0.78125
vt 0.25 0.9677734375
vt 0.2626953125 0.9677734375
vt 0.2626953125 0.96875
vt 0.25 0.96875
vt 0.5 0.5927734375
vt 0.5087890625 0.5927734375
vt 0.5087890625 0.59375
vt 0.5 0.59375
vt 0.5 0.6552734375
vt 0.5087890625 0.6552734375
vt 0.5087890625 0.65625
vt 0.5 0.65625
vt 0 0.7177734375
vt 0.0126953125 0.7177734375
vt 0.0126953125 0.71875
vt 0 0.71875
vt 0.09375 0.7177734375
vt 0.1064453125 0.7177734375
vt 0.1064453125 0.71875
vt 0.09375 0.71875
vt 0.09375 0.4677734375
vt 0.1015625 0.4677734375
vt 0.1015625 0.46875
vt 0.09375 0.46875
vt 0.1875 0.5302734375
vt 0.1953125 0.5302734375
vt 0.1953125 0.53125
vt 0.1875 0.53125
vt 0.1650390625 0.71875
vt 0.15625 0.71875
vt 0.15625 0.7138671875
vt 0.1650390625 0.7138671875
vt 0.25 0.8427734375
vt 0.2587890625 0.8427734375
vt 0.2587890625 0.84375
vt 0.25 0.84375
vt 0.2275390625 0.75
vt 0.21875 0.75
vt 0.21875 0.7451171875
vt 0.2275390625 0.7451171875
vt 0.2900390625 0.78125
vt 0.28125 0.78125
vt 0.28125 0.7802734375
vt 0.2900390625 0.7802734375
vt 0.2900390625 0.75
vt 0.28125 0.75
vt 0.28125 0.7451171875
vt 0.2900390625 0.7451171875
vt 0.28125 0.9677734375
vt 0.2900390625 0.9677734375
vt 0.2900390625 0.96875
vt 0.28125 0.96875
vt 0.3212890625 0.9375
vt 0.3125 0.9375
vt 0.3125 0.93359375
vt 0.3212890625 0.93359375
vt 0.4775390625 0.625
vt 0.46875 0.625
vt 0.46875 0.6220703125
vt 0.4775390625 0.6220703125
vt 0.0400390625 0.65625
vt 0.03125 0.65625
vt 0.03125 0.6552734375
vt 0.0400390625 0.6552734375
vt 0.1025390625 0.65625
vt 0.09375 0.65625
vt 0.09375 0.65234375
vt 0.1025390625 0.65234375
vt 0.4375 0.5595703125
vt 0.4462890625 0.5595703125
vt 0.4462890625 0.5625
vt 0.4375 0.5625
vt 0.15625 0.5625
vt 0.15625 0.560546875
vt 0.1611328125 0.560546875
vt 0.1611328125 0.5625
vt 0.4375 0.875
vt 0.4375 0.873046875
vt 0.4423828125 0.873046875
vt 0.4423828125 0.875
vt 0.408203125 0.3720703125
vt 0.408203125 0.375
vt 0.40625 0.3720703125
vt 0.625 0.5625
vt 0.625 0.5595703125
vt 0.626953125 0.5595703125
vt 0.658203125 0.6220703125
vt 0.658203125 0.625
vt 0.65625 0.6220703125
vt 0.4375 0.375
vt 0.4375 0.3720703125
vt 0.439453125 0.3720703125
vt 0.22265625 0.49609375
vt 0.21875 0.49609375
vt 0.21875 0.5
vt 0.22265625 0.5
vt 0.1064453125 0.9638671875
vt 0.09375 0.9638671875
vt 0.09375 0.96875
vt 0.1064453125 0.96875
vt 0.2626953125 0.5595703125
vt 0.25 0.5595703125
vt 0.25 0.5625
vt 0.2626953125 0.5625
vt 0.4814453125 0.7470703125
vt 0.46875 0.7470703125
vt 0.46875 0.75
vt 0.4814453125 0.75
vt 0.447265625 0.4345703125
vt 0.4375 0.4345703125
vt 0.4384765625 0.4375
vt 0.4482421875 0.4375
vt 0.4140625 0.5595703125
vt 0.40625 0.5595703125
vt 0.40625 0.5625
vt 0.4140625 0.5625
vt 0.6015625 0.427734375
vt 0.59375 0.427734375
vt 0.59375 0.431640625
vt 0.6015625 0.431640625
vt 0.5 0.3720703125
vt 0.5009765625 0.375
vt 0.5029296875 0.3720703125
vt 0.5654296875 0.3720703125
vt 0.5625 0.3720703125
vt 0.564453125 0.375
vt 0.50390625 0.80859375
vt 0.5 0.80859375
vt 0.5 0.8125
vt 0.50390625 0.8125
vt 0.5048828125 0.87109375
vt 0.5 0.87109375
vt 0.5 0.875
vt 0.5048828125 0.875
vt 0.15625 1
vt 0.1689453125 1
vt 0.1689453125 0.9951171875
vt 0.15625 0.9951171875
vt 0.15625 0.9375
vt 0.1689453125 0.9375
vt 0.1689453125 0.931640625
vt 0.15625 0.931640625
vt 0 0.78125
vt 0.0126953125 0.78125
vt 0.0126953125 0.775390625
vt 0 0.775390625
vt 0.0625 0.78125
vt 0.0751953125 0.78125
vt 0.0751953125 0.775390625
vt 0.0625 0.775390625
vt 0.15625 0.8115234375
vt 0.1640625 0.8115234375
vt 0.1640625 0.8076171875
vt 0.15625 0.8076171875
vt 0.09375 0.3720703125
vt 0.1015625 0.375
vt 0.1015625 0.369140625
vt 0.09375 0.3671875
vt 0.625 0.9345703125
vt 0.6328125 0.9345703125
vt 0.6328125 0.9287109375
vt 0.625 0.9287109375
vt 0.53125 0.4326171875
vt 0.5390625 0.4375
vt 0.5390625 0.431640625
vt 0.53125 0.427734375
vt 0.2001953125 0.78125
vt 0.2001953125 0.7802734375
vt 0.1875 0.7802734375
vt 0.1875 0.78125
vt 0.2626953125 0.96875
vt 0.2626953125 0.9677734375
vt 0.25 0.9677734375
vt 0.25 0.96875
vt 0.5087890625 0.59375
vt 0.5087890625 0.5927734375
vt 0.5 0.5927734375
vt 0.5 0.59375
vt 0.5087890625 0.65625
vt 0.5087890625 0.6552734375
vt 0.5 0.6552734375
vt 0.5 0.65625
vt 0.0126953125 0.71875
vt 0.0126953125 0.7177734375
vt 0 0.7177734375
vt 0 0.71875
vt 0.1064453125 0.71875
vt 0.1064453125 0.7177734375
vt 0.09375 0.7177734375
vt 0.09375 0.71875
vt 0.1015625 0.46875
vt 0.1015625 0.4677734375
vt 0.09375 0.4677734375
vt 0.09375 0.46875
vt 0.1953125 0.53125
vt 0.1953125 0.5302734375
vt 0.1875 0.5302734375
vt 0.1875 0.53125
vt 0.15625 0.7138671875
vt 0.15625 0.71875
vt 0.1650390625 0.71875
vt 0.1650390625 0.7138671875
vt 0.2587890625 0.84375
vt 0.2587890625 0.8427734375
vt 0.25 0.8427734375
vt 0.25 0.84375
vt 0.21875 0.7451171875
vt 0.21875 0.75
vt 0.2275390625 0.75
vt 0.2275390625 0.7451171875
vt 0.28125 0.7802734375
vt 0.28125 0.78125
vt 0.2900390625 0.78125
vt 0.2900390625 0.7802734375
vt 0.28125 0.7451171875
vt 0.28125 0.75
vt 0.2900390625 0.75
vt 0.2900390625 0.7451171875
vt 0.2900390625 0.96875
vt 0.2900390625 0.9677734375
vt 0.28125 0.9677734375
vt 0.28125 0.96875
vt 0.3125 0.93359375
vt 0.3125 0.9375
vt 0.3212890625 0.9375
vt 0.3212890625 0.93359375
vt 0.46875 0.6220703125
vt 0.46875 0.625
vt 0.4775390625 0.625
vt 0.4775390625 0.6220703125
vt 0.03125 0.6552734375
vt 0.03125 0.65625
vt 0.0400390625 0.65625
vt 0.0400390625 0.6552734375
vt 0.09375 0.65234375
vt 0.09375 0.65625
vt 0.1025390625 0.65625
vt 0.1025390625 0.65234375
vt 0.4462890625 0.5625
vt 0.4462890625 0.5595703125
vt 0.4375 0.5595703125
vt 0.4375 0.5625
vt 0.1611328125 0.560546875
vt 0.15625 0.560546875
vt 0.15625 0.5625
vt 0.1611328125 0.5625
vt 0.4423828125 0.873046875
vt 0.4375 0.873046875
vt 0.4375 0.875
vt 0.4423828125 0.875
vt 0.408203125 0.375
vt 0.408203125 0.3720703125
vt 0.40625 0.3720703125
vt 0.625 0.5595703125
vt 0.625 0.5625
vt 0.626953125 0.5595703125
vt 0.658203125 0.625
vt 0.658203125 0.6220703125
vt 0.65625 0.6220703125
vt 0.4375 0.3720703125
vt 0.4375 0.375
vt 0.439453125 0.3720703125
vn -0.8000000000000009 0.5999999999999988 0
vn 0 1 0
vn 0 0.40081883401970664 0.9161573349021898
vn 0 0.40081883401970664 -0.9161573349021898
vn -0.5911499279808482 0.3232851168645254 -0.7389374099760604
vn 0 0.40081883401970664 0.9161573349021896
vn 0 1 0
vn -0.47133772595955276 0.35350329446966344 -0.8080075302163787
vn -0.47133772595955276 0.35350329446966344 0.8080075302163786
vn -0.8000000000000009 0.5999999999999988 0
vn -0.800000000000001 0.5999999999999988 0
vn 0 1 0
vn 0 1 0
vn 0 1 0
vn 0 1 0
vn 0 1 0
vn 0 1 0
vn 0 1 0
vn 0 1 0
vn 0 0 1
vn 0 0 -1
vn 0.5390536964233671 0 0.8422714006615114
vn -0.43273106758477137 0 -0.9015230574682738
vn 0 0 1
vn 0 0 -1
vn 0.30477572710378364 0 0.9524241471993243
vn -0.157990501106673 0 -0.9874406319167055
vn 0 1 0
vn 0 0 -1
vn 0 1 0
vn 0 0 1
vn 0 1 0
vn 0 0 -1
vn 0 1 0
vn 0 0.40081883401970664 0.9161573349021896
vn 0 0 1
vn 0 1 0
vn 0 0.40081883401970664 -0.9161573349021896
vn -1 2.9605947323337513e-15 1.040834085586084e-15
vn -1 2.9605947323337505e-15 1.040834085586084e-15
vn 0 0 1
vn 0 0 -1
vn 0 0 1
vn 0 0 -1
vn -0.8000000000000009 -0.5999999999999988 0
vn 0 -1 0
vn 0 -0.40081883401970664 0.9161573349021898
vn 0 -0.40081883401970664 -0.9161573349021898
vn -0.5911499279808482 -0.3232851168645254 -0.7389374099760604
vn 0 -0.40081883401970664 0.9161573349021896
vn 0 -1 0
vn -0.47133772595955276 -0.35350329446966344 -0.8080075302163786
vn -0.47133772595955276 -0.35350329446966344 0.8080075302163786
vn -0.8000000000000009 -0.5999999999999988 0
vn -0.800000000000001 -0.5999999999999988 0
vn 0 -1 0
vn 0 -1 0
vn 0 -1 0
vn 0 -1 0
vn 0 -1 0
vn 0 -1 0
vn 0 -1 0
vn 0 -1 0
vn 0 0 1
vn 0 0 -1
vn 0.5390536964233671 0 0.8422714006615114
vn -0.43273106758477137 0 -0.9015230574682738
vn 0 0 1
vn 0 0 -1
vn 0.30477572710378364 0 0.9524241471993243
vn -0.157990501106673 0 -0.9874406319167055
vn 0 -1 0
vn 0 0 -1
vn 0 -1 0
vn 0 0 1
vn 0 -1 0
vn 0 0 -1
vn 0 -1 0
vn 0 -0.40081883401970675 0.9161573349021898
vn 0 0 1
vn 0 -1 0
vn 0 -0.4008188340197066 -0.9161573349021896
vn -1 -2.9605947323337513e-15 1.040834085586084e-15
vn -1 -2.9605947323337505e-15 1.040834085586084e-15
vn 0 0 1
vn 0 0 -1
vn 0 0 1
vn 0 0 -1
usemtl m_0bb21542-8bb6-defd-100f-ee9807d63d90
f 4/1/1 82/2/1 81/3/1 12/4/1
f 5/5/2 20/6/2 16/7/2 2/8/2
f 6/9/3 87/10/3 86/11/3 1/12/3
f 2/13/4 85/14/4 84/15/4 5/16/4
f 5/17/5 84/18/5 83/19/5 7/20/5
f 8/21/6 88/22/6 87/23/6 6/24/6
f 7/25/7 24/26/7 20/27/7 5/28/7
f 4/29/8 94/30/8 82/31/8
f 89/32/9 93/33/9 3/34/9
f 9/35/10 90/36/10 89/37/10 3/38/10
f 11/39/11 92/40/11 91/41/11 10/42/11
f 1/43/12 13/44/12 17/45/12 6/46/12
f 31/47/13 32/48/13 33/49/13 34/50/13
f 14/51/14 15/52/14 19/53/14 18/54/14
f 25/55/15 26/56/15 27/57/15 28/58/15
f 6/59/16 17/60/16 21/61/16 8/62/16
f 34/63/17 33/64/17 35/65/17 36/66/17
f 18/67/18 19/68/18 23/69/18 22/70/18
f 28/71/19 27/72/19 29/73/19 30/74/19
f 27/75/20 26/76/20 16/77/20 20/78/20
f 25/79/21 28/80/21 19/81/21 15/82/21
f 29/83/22 27/84/22 20/85/22 24/86/22
f 28/87/23 30/88/23 23/89/23 19/90/23
f 33/91/24 32/92/24 14/93/24 18/94/24
f 31/95/25 34/96/25 17/97/25 13/98/25
f 35/99/26 33/100/26 18/101/26 22/102/26
f 34/103/27 36/104/27 21/105/27 17/106/27
f 29/107/28 37/108/28 38/109/28 30/110/28
f 30/111/29 38/112/29 11/113/29 23/114/29
f 23/115/30 11/116/30 10/117/30 22/118/30
f 22/119/31 10/120/31 39/121/31 35/122/31
f 35/123/32 39/124/32 40/125/32 36/126/32
f 36/127/33 40/128/33 9/129/33 21/130/33
f 21/131/34 9/132/34 3/133/34 8/134/34
f 8/135/35 3/136/35 93/137/35 88/138/35
f 24/139/36 12/140/36 37/141/36 29/142/36
f 7/143/37 4/144/37 12/145/37 24/146/37
f 83/147/38 94/148/38 4/149/38 7/150/38
f 37/151/39 96/152/39 95/153/39 38/154/39
f 39/155/40 97/156/40 98/157/40 40/158/40
f 96/159/41 12/160/41 81/161/41
f 11/162/42 95/163/42 92/164/42
f 97/165/43 10/166/43 91/167/43
f 9/168/44 98/169/44 90/170/44
f 81/171/45 82/172/45 44/173/45 52/174/45
f 56/175/46 60/176/46 45/177/46 42/178/46
f 86/179/47 87/180/47 46/181/47 41/182/47
f 84/183/48 85/184/48 42/185/48 45/186/48
f 83/187/49 84/188/49 45/189/49 47/190/49
f 87/191/50 88/192/50 48/193/50 46/194/50
f 60/195/51 64/196/51 47/197/51 45/198/51
f 94/199/52 44/200/52 82/201/52
f 93/202/53 89/203/53 43/204/53
f 89/205/54 90/206/54 49/207/54 43/208/54
f 91/209/55 92/210/55 51/211/55 50/212/55
f 57/213/56 53/214/56 41/215/56 46/216/56
f 73/217/57 72/218/57 71/219/57 74/220/57
f 59/221/58 55/222/58 54/223/58 58/224/58
f 67/225/59 66/226/59 65/227/59 68/228/59
f 61/229/60 57/230/60 46/231/60 48/232/60
f 75/233/61 73/234/61 74/235/61 76/236/61
f 63/237/62 59/238/62 58/239/62 62/240/62
f 69/241/63 67/242/63 68/243/63 70/244/63
f 56/245/64 66/246/64 67/247/64 60/248/64
f 59/249/65 68/250/65 65/251/65 55/252/65
f 60/253/66 67/254/66 69/255/66 64/256/66
f 63/257/67 70/258/67 68/259/67 59/260/67
f 54/261/68 72/262/68 73/263/68 58/264/68
f 57/265/69 74/266/69 71/267/69 53/268/69
f 58/269/70 73/270/70 75/271/70 62/272/70
f 61/273/71 76/274/71 74/275/71 57/276/71
f 78/277/72 77/278/72 69/279/72 70/280/72
f 51/281/73 78/282/73 70/283/73 63/284/73
f 50/285/74 51/286/74 63/287/74 62/288/74
f 79/289/75 50/290/75 62/291/75 75/292/75
f 80/293/76 79/294/76 75/295/76 76/296/76
f 49/297/77 80/298/77 76/299/77 61/300/77
f 43/301/78 49/302/78 61/303/78 48/304/78
f 93/305/79 43/306/79 48/307/79 88/308/79
f 77/309/80 52/310/80 64/311/80 69/312/80
f 52/313/81 44/314/81 47/315/81 64/316/81
f 44/317/82 94/318/82 83/319/82 47/320/82
f 95/321/83 96/322/83 77/323/83 78/324/83
f 98/325/84 97/326/84 79/327/84 80/328/84
f 52/329/85 96/330/85 81/331/85
f 95/332/86 51/333/86 92/334/86
f 50/335/87 97/336/87 91/337/87
f 98/338/88 49/339/88 90/340/88
o cuboid
v 0.04375 0.0125 -0.026041666666666668
v 0.01875 0.0125 -0.03125
v 0.04375 0.004166666666666669 -0.03125
v 0.01875 0.004166666666666669 -0.0375
v 0.0375 0.0125 -0.03125
v 0.0375 0.004166666666666669 -0.0375
v 0.04375 -0.0125 -0.026041666666666668
v 0.01875 -0.0125 -0.03125
v 0.04375 -0.004166666666666669 -0.03125
v 0.01875 -0.004166666666666669 -0.0375
v 0.0375 -0.0125 -0.03125
v 0.0375 -0.004166666666666669 -0.0375
v 0.01875 1.734723475976807e-18 -0.0375
v 0.04375 1.734723475976807e-18 -0.03125
v 0.0375 1.734723475976807e-18 -0.0375
v 0.04375 0.004166666666666669 0.03125
v 0.04375 0.0125 0.026041666666666668
v 0.04375 1.734723475976807e-18 0.03125
v 0.04375 -0.004166666666666669 0.03125
v 0.04375 -0.0125 0.026041666666666668
v 0.01875 0.0125 0.03125
v 0.0375 0.0125 0.03125
v 0.0375 0.004166666666666669 0.0375
v 0.01875 0.004166666666666669 0.0375
v 0.0375 1.734723475976807e-18 0.0375
v 0.01875 1.734723475976807e-18 0.0375
v 0.0375 -0.004166666666666669 0.0375
v 0.01875 -0.004166666666666669 0.0375
v 0.0375 -0.0125 0.03125
v 0.01875 -0.0125 0.03125
vt 0.5029296875 0.4658203125
vt 0.5 0.46875
vt 0.5 0.4375
vt 0.5029296875 0.4404296875
vt 0.6279296875 0.8701171875
vt 0.630859375 0.8701171875
vt 0.630859375 0.875
vt 0.6279296875 0.875
vt 0.0029296875 0.90625
vt 0 0.90234375
vt 0.037109375 0.90234375
vt 0.0341796875 0.90625
vt 0.0341796875 0.40625
vt 0.03125 0.40234375
vt 0.0625 0.40234375
vt 0.0595703125 0.40625
vt 0.1552734375 0.375
vt 0.166015625 0.375
vt 0.166015625 0.40625
vt 0.1552734375 0.40625
vt 0.572265625 0.75
vt 0.5615234375 0.75
vt 0.5615234375 0.7451171875
vt 0.572265625 0.7451171875
vt 0.53125 0.90625
vt 0.53125 0.904296875
vt 0.568359375 0.904296875
vt 0.568359375 0.90625
vt 0.09375 0.40625
vt 0.09375 0.404296875
vt 0.125 0.404296875
vt 0.125 0.40625
vt 0.375 0.40625
vt 0.375 0.404296875
vt 0.3779296875 0.404296875
vt 0.3779296875 0.40625
vt 0.5615234375 0.84375
vt 0.5615234375 0.841796875
vt 0.572265625 0.841796875
vt 0.572265625 0.84375
vt 0.5 0.4375
vt 0.5 0.46875
vt 0.5029296875 0.4658203125
vt 0.5029296875 0.4404296875
vt 0.630859375 0.875
vt 0.630859375 0.8701171875
vt 0.6279296875 0.8701171875
vt 0.6279296875 0.875
vt 0.037109375 0.90234375
vt 0 0.90234375
vt 0.0029296875 0.90625
vt 0.0341796875 0.90625
vt 0.0625 0.40234375
vt 0.03125 0.40234375
vt 0.0341796875 0.40625
vt 0.0595703125 0.40625
vt 0.166015625 0.40625
vt 0.166015625 0.375
vt 0.1552734375 0.375
vt 0.1552734375 0.40625
vt 0.5615234375 0.7451171875
vt 0.5615234375 0.75
vt 0.572265625 0.75
vt 0.572265625 0.7451171875
vt 0.568359375 0.904296875
vt 0.53125 0.904296875
vt 0.53125 0.90625
vt 0.568359375 0.90625
vt 0.125 0.404296875
vt 0.09375 0.404296875
vt 0.09375 0.40625
vt 0.125 0.40625
vt 0.3779296875 0.404296875
vt 0.375 0.404296875
vt 0.375 0.40625
vt 0.3779296875 0.40625
vt 0.572265625 0.841796875
vt 0.5615234375 0.841796875
vt 0.5615234375 0.84375
vt 0.572265625 0.84375
vt 0.630859375 0.875
vt 0.630859375 0.8701171875
vt 0.6279296875 0.8701171875
vt 0.6279296875 0.875
vt 0.3779296875 0.404296875
vt 0.375 0.404296875
vt 0.375 0.40625
vt 0.3779296875 0.40625
vt 0.6279296875 0.8701171875
vt 0.630859375 0.8701171875
vt 0.630859375 0.875
vt 0.6279296875 0.875
vt 0.375 0.40625
vt 0.375 0.404296875
vt 0.3779296875 0.404296875
vt 0.3779296875 0.40625
vt 0.5615234375 0.7451171875
vt 0.5615234375 0.75
vt 0.572265625 0.75
vt 0.572265625 0.7451171875
vt 0.572265625 0.841796875
vt 0.5615234375 0.841796875
vt 0.5615234375 0.84375
vt 0.572265625 0.84375
vt 0.572265625 0.75
vt 0.5615234375 0.75
vt 0.5615234375 0.7451171875
vt 0.572265625 0.7451171875
vt 0.5615234375 0.84375
vt 0.5615234375 0.841796875
vt 0.572265625 0.841796875
vt 0.572265625 0.84375
vn 0 1 0
vn 0.6246950475544242 0.46852128566581835 -0.6246950475544244
vn -1 0 0
vn 1 0 0
vn 0 1 0
vn 0 0.6000000000000001 -0.8000000000000002
vn -1 0 0
vn 1 0 0
vn 0.7071067811865475 0 -0.7071067811865477
vn 0 0 -1
vn 0 -1 0
vn 0.6246950475544242 -0.46852128566581835 -0.6246950475544244
vn -1 0 0
vn 1 0 0
vn 0 -1 0
vn 0 -0.6000000000000001 -0.8000000000000002
vn -1 0 0
vn 1 0 0
vn 0.7071067811865475 0 -0.7071067811865477
vn 0 0 -1
vn 0.6246950475544242 0.46852128566581835 0.6246950475544244
vn 0.7071067811865475 0 0.7071067811865477
vn 0.6246950475544242 -0.46852128566581835 0.6246950475544244
vn 0.7071067811865475 0 0.7071067811865477
vn 0 0.6000000000000001 0.8000000000000002
vn 0 0 1
vn 0 -0.6000000000000001 0.8000000000000002
vn 0 0 1
usemtl m_0bb21542-8bb6-defd-100f-ee9807d63d90
f 99/341/89 103/342/89 120/343/89 115/344/89
f 101/345/90 104/346/90 103/347/90 99/348/90
f 100/349/91 102/350/91 122/351/91 119/352/91
f 115/353/92 114/354/92 101/355/92 99/356/92
f 119/357/93 120/358/93 103/359/93 100/360/93
f 100/361/94 103/362/94 104/363/94 102/364/94
f 102/365/95 111/366/95 124/367/95 122/368/95
f 114/369/96 116/370/96 112/371/96 101/372/96
f 101/373/97 112/374/97 113/375/97 104/376/97
f 104/377/98 113/378/98 111/379/98 102/380/98
f 127/381/99 109/382/99 105/383/99 118/384/99
f 109/385/100 110/386/100 107/387/100 105/388/100
f 126/389/101 108/390/101 106/391/101 128/392/101
f 107/393/102 117/394/102 118/395/102 105/396/102
f 109/397/103 127/398/103 128/399/103 106/400/103
f 110/401/104 109/402/104 106/403/104 108/404/104
f 124/405/105 111/406/105 108/407/105 126/408/105
f 112/409/106 116/410/106 117/411/106 107/412/106
f 113/413/107 112/414/107 107/415/107 110/416/107
f 111/417/108 113/418/108 110/419/108 108/420/108
f 120/421/109 121/422/109 114/423/109 115/424/109
f 123/425/110 116/426/110 114/427/110 121/428/110
f 117/429/111 125/430/111 127/431/111 118/432/111
f 117/433/112 116/434/112 123/435/112 125/436/112
f 121/437/113 120/438/113 119/439/113 122/440/113
f 124/441/114 123/442/114 121/443/114 122/444/114
f 128/445/115 127/446/115 125/447/115 126/448/115
f 125/449/116 123/450/116 124/451/116 126/452/116